<svg width="350" height="503" viewBox="0 0 350 503" fill="none" xmlns="http://www.w3.org/2000/svg">
<g filter="url(#filter0_bdd_18_55)">
<path d="M191.414 456.034L310.346 358.378C312.659 356.479 314 353.643 314 350.649V40.0005C314 34.4774 309.523 30 303.999 30H46.0005C40.4774 30 36 34.4774 36 40.0005V350.675C36 353.654 37.3278 356.477 39.6219 358.377L157.456 455.963C167.299 464.114 181.538 464.144 191.414 456.034Z" fill="white" fill-opacity="0.06" shape-rendering="crispEdges"/>
<path d="M191.414 456.034L310.346 358.378C312.659 356.479 314 353.643 314 350.649V40.0005C314 34.4774 309.523 30 303.999 30H46.0005C40.4774 30 36 34.4774 36 40.0005V350.675C36 353.654 37.3278 356.477 39.6219 358.377L157.456 455.963C167.299 464.114 181.538 464.144 191.414 456.034Z" stroke="url(#paint0_linear_18_55)" stroke-width="4.28594" shape-rendering="crispEdges"/>
</g>
<defs>
<filter id="filter0_bdd_18_55" x="-23.2889" y="-29.2889" width="396.578" height="550.674" filterUnits="userSpaceOnUse" color-interpolation-filters="sRGB">
<feFlood flood-opacity="0" result="BackgroundImageFix"/>
<feGaussianBlur in="BackgroundImage" stdDeviation="28.5729"/>
<feComposite in2="SourceAlpha" operator="in" result="effect1_backgroundBlur_18_55"/>
<feColorMatrix in="SourceAlpha" type="matrix" values="0 0 0 0 0 0 0 0 0 0 0 0 0 0 0 0 0 0 127 0" result="hardAlpha"/>
<feMorphology radius="1.42865" operator="erode" in="SourceAlpha" result="effect2_dropShadow_18_55"/>
<feOffset dy="5.71459"/>
<feGaussianBlur stdDeviation="17.1438"/>
<feComposite in2="hardAlpha" operator="out"/>
<feColorMatrix type="matrix" values="0 0 0 0 0 0 0 0 0 0 0 0 0 0 0 0 0 0 0.25 0"/>
<feBlend mode="normal" in2="effect1_backgroundBlur_18_55" result="effect2_dropShadow_18_55"/>
<feColorMatrix in="SourceAlpha" type="matrix" values="0 0 0 0 0 0 0 0 0 0 0 0 0 0 0 0 0 0 127 0" result="hardAlpha"/>
<feOffset dy="5.71459"/>
<feGaussianBlur stdDeviation="2.85729"/>
<feComposite in2="hardAlpha" operator="out"/>
<feColorMatrix type="matrix" values="0 0 0 0 0 0 0 0 0 0 0 0 0 0 0 0 0 0 0.25 0"/>
<feBlend mode="normal" in2="effect2_dropShadow_18_55" result="effect3_dropShadow_18_55"/>
<feBlend mode="normal" in="SourceGraphic" in2="effect3_dropShadow_18_55" result="shape"/>
</filter>
<linearGradient id="paint0_linear_18_55" x1="252.733" y1="450.298" x2="-23.2014" y2="281.216" gradientUnits="userSpaceOnUse">
<stop offset="0.0677083" stop-color="#22A2FF" stop-opacity="0.28"/>
<stop offset="0.229167" stop-color="#22A2FF" stop-opacity="0.35"/>
<stop offset="0.463542" stop-color="#FD00F3" stop-opacity="0.34"/>
<stop offset="0.854167" stop-color="#FF7DFA" stop-opacity="0.56"/>
<stop offset="1" stop-color="#FF7DFA" stop-opacity="0.56"/>
</linearGradient>
</defs>
</svg>
